<svg xmlns="http://www.w3.org/2000/svg" viewBox="0 0 64 64" fill="none">
  <path d="M32 6C26.8 13.7 14 28.8 14 39.5C14 49.2 22 57 32 57C42 57 50 49.2 50 39.5C50 28.8 37.2 13.7 32 6Z" fill="url(#a)"/>
  <path d="M32 14C27.8 20.2 20 30.4 20 39.1C20 45.7 25.4 51 32 51C38.6 51 44 45.7 44 39.1C44 30.4 36.2 20.2 32 14Z" fill="white" fill-opacity=".14"/>
  <path d="M24 40.5C26 43.3 28.9 45 32 45C35.1 45 38 43.3 40 40.5" stroke="white" stroke-width="3" stroke-linecap="round"/>
  <circle cx="32" cy="33" r="3.5" fill="white"/>
  <defs>
    <linearGradient id="a" x1="32" y1="6" x2="32" y2="57" gradientUnits="userSpaceOnUse">
      <stop stop-color="#7DD3FC"/>
      <stop offset="1" stop-color="#0EA5E9"/>
    </linearGradient>
  </defs>
</svg>
